<?xml version="1.0" standalone="no"?>
<!DOCTYPE svg PUBLIC "-//W3C//DTD SVG 20010904//EN"
 "http://www.w3.org/TR/2001/REC-SVG-20010904/DTD/svg10.dtd">
<svg version="1.0" xmlns="http://www.w3.org/2000/svg"
 width="700.000000pt" height="700.000000pt" viewBox="0 0 700.000000 700.000000"
 preserveAspectRatio="xMidYMid meet">
<metadata>
Created by potrace 1.14, written by Peter Selinger 2001-2017
</metadata>
<g transform="translate(0.000000,700.000000) scale(0.100000,-0.100000)"
fill="#000000" stroke="none">
<path d="M3278 6996 c-1 -2 -39 -6 -83 -10 -123 -9 -292 -34 -400 -58 -209
-46 -495 -133 -620 -188 -490 -216 -799 -423 -1140 -765 -213 -213 -303 -320
-454 -548 -269 -404 -469 -912 -535 -1362 -2 -16 -8 -50 -12 -75 -20 -129 -29
-271 -29 -490 0 -236 6 -344 30 -507 127 -861 564 -1633 1242 -2195 85 -71
327 -248 338 -248 3 0 37 -21 77 -46 97 -62 326 -179 468 -238 316 -132 689
-224 1030 -254 112 -9 522 -9 630 1 1005 91 1920 615 2519 1442 97 134 102
142 200 311 246 427 405 926 448 1409 15 172 9 576 -12 750 -18 149 -63 371
-105 520 -25 89 -33 115 -52 170 -133 390 -331 749 -596 1082 -77 97 -348 377
-444 461 -126 109 -363 276 -528 372 -73 42 -290 153 -360 183 -269 114 -579
205 -835 243 -27 4 -57 9 -65 10 -8 2 -42 6 -76 9 -33 4 -74 9 -90 11 -32 5
-540 14 -546 10z m467 -1317 c108 -14 195 -30 248 -44 26 -8 51 -14 55 -15 64
-7 304 -96 436 -162 62 -31 227 -127 236 -137 3 -3 25 -20 50 -36 152 -102
365 -311 487 -478 29 -40 56 -76 60 -82 22 -28 115 -189 148 -254 102 -204
182 -473 212 -711 10 -84 10 -403 0 -500 -92 -845 -684 -1574 -1494 -1839
-636 -209 -1334 -115 -1888 254 -521 347 -864 881 -961 1500 -19 121 -28 495
-14 561 4 22 10 62 13 89 3 28 11 73 17 100 6 28 14 61 16 75 8 40 23 93 48
172 125 383 349 720 649 978 54 47 104 90 110 96 29 25 227 150 301 190 184
97 450 191 626 219 19 3 42 7 50 10 8 2 42 7 75 10 33 4 61 8 63 9 7 8 395 3
457 -5z"/>
<path d="M3380 4550 c-117 -21 -178 -38 -255 -74 -40 -18 -101 -53 -136 -76
-89 -59 -939 -906 -984 -980 -161 -265 -29 -603 274 -696 57 -18 170 -19 236
-3 121 29 146 50 579 482 225 224 413 406 418 405 4 -2 191 -186 415 -409 384
-382 412 -408 483 -442 311 -150 670 70 672 411 0 85 -15 148 -53 225 -27 53
-94 125 -487 518 -373 372 -471 464 -533 503 -152 93 -294 135 -469 140 -63 2
-135 0 -160 -4z"/>
</g>
</svg>
